<?xml version="1.0" standalone="no"?><svg xmlns="http://www.w3.org/2000/svg" viewBox="0 0 1440 320"><path fill="#413c69" fill-opacity="1" d="M0,288L17.1,250.7C34.3,213,69,139,103,133.3C137.1,128,171,192,206,234.7C240,277,274,299,309,272C342.9,245,377,171,411,138.7C445.7,107,480,117,514,106.7C548.6,96,583,64,617,74.7C651.4,85,686,139,720,160C754.3,181,789,171,823,165.3C857.1,160,891,160,926,154.7C960,149,994,139,1029,154.7C1062.9,171,1097,213,1131,234.7C1165.7,256,1200,256,1234,224C1268.6,192,1303,128,1337,112C1371.4,96,1406,128,1423,144L1440,160L1440,0L1422.9,0C1405.7,0,1371,0,1337,0C1302.9,0,1269,0,1234,0C1200,0,1166,0,1131,0C1097.1,0,1063,0,1029,0C994.3,0,960,0,926,0C891.4,0,857,0,823,0C788.6,0,754,0,720,0C685.7,0,651,0,617,0C582.9,0,549,0,514,0C480,0,446,0,411,0C377.1,0,343,0,309,0C274.3,0,240,0,206,0C171.4,0,137,0,103,0C68.6,0,34,0,17,0L0,0Z"></path></svg>